<?xml version="1.0" encoding="utf-8"?>
<!-- Generator: Adobe Illustrator 16.0.0, SVG Export Plug-In . SVG Version: 6.00 Build 0)  -->
<!DOCTYPE svg PUBLIC "-//W3C//DTD SVG 1.1//EN" "http://www.w3.org/Graphics/SVG/1.1/DTD/svg11.dtd">
<svg version="1.1" id="Layer_1" xmlns="http://www.w3.org/2000/svg" xmlns:xlink="http://www.w3.org/1999/xlink" x="0px" y="0px"
	 width="185.91px" height="189.391px" viewBox="0 0 185.91 189.391" enable-background="new 0 0 185.91 189.391"
	 xml:space="preserve">
<g>
	<g id="XMLID_1_">
		<g>
			<path fill="#246B91" d="M155.716,50.243c16.961,1.832,30.193,16.179,30.193,33.647c0,9.34-3.791,17.804-9.912,23.927
				c-6.123,6.122-14.58,9.912-23.936,9.912H30.909v-0.143C13.583,116.099,0,101.592,0,83.892c0-0.979,0.04-1.967,0.12-2.93h54.135
				l-0.08-49.621l55.919,67.989V43.093l13.368,12.676L155.716,50.243z"/>
		</g>
	</g>
	<g id="XMLID_2_">
		<g>
			<path fill="#00C1C1" d="M149.101,45.729l-23.831,4.085l-20.75-19.683v53.649L48.57,15.767l0.104,59.621H1.067
				c2.954-11.386,11.697-20.438,22.884-23.862c-0.51-2.636-0.781-5.383-0.781-8.192c0-23.926,19.404-43.33,43.331-43.33
				c16.251,0,30.392,8.94,37.821,22.183c4.188-2.109,8.917-3.289,13.926-3.289C133.973,18.896,146.998,30.569,149.101,45.729z"/>
		</g>
	</g>
</g>
<g>
	<path fill="#246B91" d="M23.818,188.41v-38.981h0.848l25.944,29.88v-29.88h3.842v38.981h-0.875L27.846,158.89v29.521H23.818z"/>
	<path fill="#246B91" d="M64.151,149.429h7.765c4.328,0,7.261,0.175,8.798,0.529c2.313,0.532,4.195,1.667,5.644,3.408
		c1.449,1.742,2.172,3.89,2.172,6.436c0,2.124-0.499,3.988-1.497,5.601c-0.998,1.608-2.424,2.826-4.28,3.646
		c-1.854,0.824-4.416,1.245-7.685,1.262l14.019,18.102h-4.819l-14.02-18.102h-2.202v18.102H64.15L64.151,149.429L64.151,149.429z
		 M68.046,153.243v13.251l6.716,0.055c2.6,0,4.525-0.25,5.773-0.742c1.247-0.496,2.22-1.287,2.919-2.375
		c0.699-1.087,1.048-2.3,1.048-3.644c0-1.307-0.354-2.495-1.062-3.563c-0.708-1.069-1.636-1.835-2.787-2.293
		c-1.15-0.461-3.062-0.689-5.733-0.689H68.046z"/>
	<path fill="#246B91" d="M96.903,149.429h22.341v3.814h-18.445v12.217h18.285v3.816h-18.285v15.313h18.285v3.819H96.903V149.429z"/>
	<path fill="#246B91" d="M162.281,156.662l-3.074,2.36c-1.696-2.209-3.732-3.883-6.106-5.024c-2.377-1.137-4.988-1.71-7.832-1.71
		c-3.11,0-5.989,0.749-8.64,2.24c-2.651,1.494-4.703,3.497-6.162,6.016c-1.456,2.518-2.187,5.348-2.187,8.495
		c0,4.751,1.632,8.717,4.892,11.897c3.259,3.18,7.369,4.77,12.336,4.77c5.457,0,10.023-2.139,13.699-6.412l3.074,2.332
		c-1.945,2.475-4.369,4.386-7.275,5.735c-2.904,1.351-6.152,2.028-9.737,2.028c-6.819,0-12.198-2.271-16.138-6.813
		c-3.308-3.832-4.959-8.461-4.959-13.884c0-5.707,2.002-10.512,6.004-14.404c4-3.896,9.016-5.844,15.041-5.844
		c3.637,0,6.924,0.721,9.856,2.16C158.005,152.048,160.408,154.066,162.281,156.662z"/>
</g>
</svg>
