<?xml version="1.0" encoding="UTF-8"?><svg xmlns="http://www.w3.org/2000/svg" xmlns:xlink="http://www.w3.org/1999/xlink" fill-opacity="1" color-rendering="auto" color-interpolation="auto" text-rendering="auto" stroke="black" stroke-linecap="square" width="1379" stroke-miterlimit="10" shape-rendering="auto" stroke-opacity="1" fill="black" stroke-dasharray="none" font-weight="normal" stroke-width="1" height="1018" font-family="'Dialog'" font-style="normal" stroke-linejoin="miter" font-size="12px" stroke-dashoffset="0" image-rendering="auto">
  <!--Generated by ySVG 2.5-->
  <defs id="genericDefs"/>
  <g>
    <defs id="defs1">
      <clipPath clipPathUnits="userSpaceOnUse" id="clipPath1">
        <path d="M0 0 L1379 0 L1379 1018 L0 1018 L0 0 Z"/>
      </clipPath>
      <clipPath clipPathUnits="userSpaceOnUse" id="clipPath2">
        <path d="M103 152 L1482 152 L1482 1170 L103 1170 L103 152 Z"/>
      </clipPath>
    </defs>
    <g fill="white" text-rendering="geometricPrecision" shape-rendering="geometricPrecision" transform="translate(-103,-152)" stroke="white">
      <rect x="103" width="1379" height="1018" y="152" clip-path="url(#clipPath2)" stroke="none"/>
    </g>
    <g fill="rgb(255,204,0)" text-rendering="geometricPrecision" shape-rendering="geometricPrecision" transform="matrix(1,0,0,1,-103,-152)" stroke="rgb(255,204,0)">
      <rect x="408" y="167" clip-path="url(#clipPath2)" width="784" rx="4" ry="4" height="375" stroke="none"/>
    </g>
    <g font-size="24px" stroke-linecap="butt" transform="matrix(1,0,0,1,-103,-152)" text-rendering="geometricPrecision" font-family="sans-serif" shape-rendering="geometricPrecision" stroke-miterlimit="1.45">
      <text x="729.9102" xml:space="preserve" y="362.8086" clip-path="url(#clipPath2)" stroke="none">osl-login-01</text>
      <rect x="408" y="167" clip-path="url(#clipPath2)" fill="none" width="784" rx="4" ry="4" height="375"/>
    </g>
    <g fill="rgb(255,204,0)" text-rendering="geometricPrecision" shape-rendering="geometricPrecision" transform="matrix(1,0,0,1,-103,-152)" stroke="rgb(255,204,0)">
      <rect x="438" width="318" height="58" y="542" clip-path="url(#clipPath2)" stroke="none"/>
    </g>
    <g text-rendering="geometricPrecision" stroke-miterlimit="1.45" shape-rendering="geometricPrecision" font-family="sans-serif" transform="matrix(1,0,0,1,-103,-152)" stroke-linecap="butt">
      <text x="572.0947" xml:space="preserve" y="575.1543" clip-path="url(#clipPath2)" stroke="none">onboard</text>
      <rect fill="none" x="438" width="318" height="58" y="542" clip-path="url(#clipPath2)"/>
    </g>
    <g fill="rgb(255,204,0)" text-rendering="geometricPrecision" shape-rendering="geometricPrecision" transform="matrix(1,0,0,1,-103,-152)" stroke="rgb(255,204,0)">
      <circle r="15" clip-path="url(#clipPath2)" cx="453" cy="615" stroke="none"/>
    </g>
    <g text-rendering="geometricPrecision" stroke-miterlimit="1.45" shape-rendering="geometricPrecision" font-family="sans-serif" transform="matrix(1,0,0,1,-103,-152)" stroke-linecap="butt">
      <text x="439.6465" xml:space="preserve" y="619.1543" clip-path="url(#clipPath2)" stroke="none">em1</text>
      <circle fill="none" r="15" clip-path="url(#clipPath2)" cx="453" cy="615"/>
    </g>
    <g fill="rgb(255,204,0)" text-rendering="geometricPrecision" shape-rendering="geometricPrecision" transform="matrix(1,0,0,1,-103,-152)" stroke="rgb(255,204,0)">
      <circle r="15" clip-path="url(#clipPath2)" cx="555" cy="615" stroke="none"/>
    </g>
    <g text-rendering="geometricPrecision" stroke-miterlimit="1.45" shape-rendering="geometricPrecision" font-family="sans-serif" transform="matrix(1,0,0,1,-103,-152)" stroke-linecap="butt">
      <text x="541.6465" xml:space="preserve" y="619.1543" clip-path="url(#clipPath2)" stroke="none">em2</text>
      <circle fill="none" r="15" clip-path="url(#clipPath2)" cx="555" cy="615"/>
    </g>
    <g fill="rgb(255,204,0)" text-rendering="geometricPrecision" shape-rendering="geometricPrecision" transform="matrix(1,0,0,1,-103,-152)" stroke="rgb(255,204,0)">
      <circle r="15" clip-path="url(#clipPath2)" cx="648" cy="615" stroke="none"/>
    </g>
    <g text-rendering="geometricPrecision" stroke-miterlimit="1.45" shape-rendering="geometricPrecision" font-family="sans-serif" transform="matrix(1,0,0,1,-103,-152)" stroke-linecap="butt">
      <text x="634.6465" xml:space="preserve" y="619.1543" clip-path="url(#clipPath2)" stroke="none">em3</text>
      <circle fill="none" r="15" clip-path="url(#clipPath2)" cx="648" cy="615"/>
    </g>
    <g fill="rgb(255,204,0)" text-rendering="geometricPrecision" shape-rendering="geometricPrecision" transform="matrix(1,0,0,1,-103,-152)" stroke="rgb(255,204,0)">
      <circle r="15" clip-path="url(#clipPath2)" cx="741" cy="615" stroke="none"/>
    </g>
    <g text-rendering="geometricPrecision" stroke-miterlimit="1.45" shape-rendering="geometricPrecision" font-family="sans-serif" transform="matrix(1,0,0,1,-103,-152)" stroke-linecap="butt">
      <text x="727.6465" xml:space="preserve" y="619.1543" clip-path="url(#clipPath2)" stroke="none">em4</text>
      <circle fill="none" r="15" clip-path="url(#clipPath2)" cx="741" cy="615"/>
    </g>
    <g fill="rgb(255,204,0)" text-rendering="geometricPrecision" shape-rendering="geometricPrecision" transform="matrix(1,0,0,1,-103,-152)" stroke="rgb(255,204,0)">
      <rect x="847" width="318" height="58" y="542" clip-path="url(#clipPath2)" stroke="none"/>
    </g>
    <g text-rendering="geometricPrecision" stroke-miterlimit="1.45" shape-rendering="geometricPrecision" font-family="sans-serif" transform="matrix(1,0,0,1,-103,-152)" stroke-linecap="butt">
      <text x="949.5596" xml:space="preserve" y="575.1543" clip-path="url(#clipPath2)" stroke="none">additional PCI card</text>
      <rect fill="none" x="847" width="318" height="58" y="542" clip-path="url(#clipPath2)"/>
    </g>
    <g fill="rgb(255,204,0)" text-rendering="geometricPrecision" shape-rendering="geometricPrecision" transform="matrix(1,0,0,1,-103,-152)" stroke="rgb(255,204,0)">
      <circle r="15" clip-path="url(#clipPath2)" cx="862" cy="615" stroke="none"/>
    </g>
    <g text-rendering="geometricPrecision" stroke-miterlimit="1.45" shape-rendering="geometricPrecision" font-family="sans-serif" transform="matrix(1,0,0,1,-103,-152)" stroke-linecap="butt">
      <text x="846.748" xml:space="preserve" y="619.1543" clip-path="url(#clipPath2)" stroke="none">p2p1</text>
      <circle fill="none" r="15" clip-path="url(#clipPath2)" cx="862" cy="615"/>
    </g>
    <g fill="rgb(255,204,0)" text-rendering="geometricPrecision" shape-rendering="geometricPrecision" transform="matrix(1,0,0,1,-103,-152)" stroke="rgb(255,204,0)">
      <circle r="15" clip-path="url(#clipPath2)" cx="964" cy="615" stroke="none"/>
    </g>
    <g text-rendering="geometricPrecision" stroke-miterlimit="1.45" shape-rendering="geometricPrecision" font-family="sans-serif" transform="matrix(1,0,0,1,-103,-152)" stroke-linecap="butt">
      <text x="948.748" xml:space="preserve" y="619.1543" clip-path="url(#clipPath2)" stroke="none">p2p2</text>
      <circle fill="none" r="15" clip-path="url(#clipPath2)" cx="964" cy="615"/>
    </g>
    <g fill="rgb(255,204,0)" text-rendering="geometricPrecision" shape-rendering="geometricPrecision" transform="matrix(1,0,0,1,-103,-152)" stroke="rgb(255,204,0)">
      <circle r="15" clip-path="url(#clipPath2)" cx="1057" cy="615" stroke="none"/>
    </g>
    <g text-rendering="geometricPrecision" stroke-miterlimit="1.45" shape-rendering="geometricPrecision" font-family="sans-serif" transform="matrix(1,0,0,1,-103,-152)" stroke-linecap="butt">
      <text x="1041.748" xml:space="preserve" y="619.1543" clip-path="url(#clipPath2)" stroke="none">p2p3</text>
      <circle fill="none" r="15" clip-path="url(#clipPath2)" cx="1057" cy="615"/>
    </g>
    <g fill="rgb(255,204,0)" text-rendering="geometricPrecision" shape-rendering="geometricPrecision" transform="matrix(1,0,0,1,-103,-152)" stroke="rgb(255,204,0)">
      <circle r="15" clip-path="url(#clipPath2)" cx="1150" cy="615" stroke="none"/>
    </g>
    <g text-rendering="geometricPrecision" stroke-miterlimit="1.45" shape-rendering="geometricPrecision" font-family="sans-serif" transform="matrix(1,0,0,1,-103,-152)" stroke-linecap="butt">
      <text x="1134.748" xml:space="preserve" y="619.1543" clip-path="url(#clipPath2)" stroke="none">p2p4</text>
      <circle fill="none" r="15" clip-path="url(#clipPath2)" cx="1150" cy="615"/>
    </g>
    <g fill="rgb(255,204,0)" text-rendering="geometricPrecision" shape-rendering="geometricPrecision" transform="matrix(1,0,0,1,-103,-152)" stroke="rgb(255,204,0)">
      <rect x="118" width="350" height="9" y="745.5" clip-path="url(#clipPath2)" stroke="none"/>
    </g>
    <g font-size="14px" stroke-linecap="butt" transform="matrix(1,0,0,1,-103,-152)" text-rendering="geometricPrecision" font-family="sans-serif" shape-rendering="geometricPrecision" stroke-miterlimit="1.45">
      <text x="205.8042" xml:space="preserve" y="773.4951" clip-path="url(#clipPath2)" stroke="none">129.240.224.96/27 (UiO)</text>
      <rect fill="none" x="118" width="350" height="9" y="745.5" clip-path="url(#clipPath2)"/>
    </g>
    <g fill="rgb(255,204,0)" text-rendering="geometricPrecision" shape-rendering="geometricPrecision" transform="matrix(1,0,0,1,-103,-152)" stroke="rgb(255,204,0)">
      <rect x="118" width="545" height="9" y="863" clip-path="url(#clipPath2)" stroke="none"/>
    </g>
    <g font-size="14px" stroke-linecap="butt" transform="matrix(1,0,0,1,-103,-152)" text-rendering="geometricPrecision" font-family="sans-serif" shape-rendering="geometricPrecision" stroke-miterlimit="1.45">
      <text x="313.4214" xml:space="preserve" y="890.9951" clip-path="url(#clipPath2)" stroke="none">172.17.32.0/21 (OOB)</text>
      <rect fill="none" x="118" width="545" height="9" y="863" clip-path="url(#clipPath2)"/>
    </g>
    <g fill="rgb(255,204,0)" text-rendering="geometricPrecision" shape-rendering="geometricPrecision" transform="matrix(1,0,0,1,-103,-152)" stroke="rgb(255,204,0)">
      <rect x="118" width="638" height="9" y="925.5" clip-path="url(#clipPath2)" stroke="none"/>
    </g>
    <g font-size="14px" stroke-linecap="butt" transform="matrix(1,0,0,1,-103,-152)" text-rendering="geometricPrecision" font-family="sans-serif" shape-rendering="geometricPrecision" stroke-miterlimit="1.45">
      <text x="353.9639" xml:space="preserve" y="953.4951" clip-path="url(#clipPath2)" stroke="none">172.16.32.0/21 (MGMT)</text>
      <rect fill="none" x="118" width="638" height="9" y="925.5" clip-path="url(#clipPath2)"/>
    </g>
    <g fill="rgb(255,204,0)" text-rendering="geometricPrecision" shape-rendering="geometricPrecision" transform="matrix(1,0,0,1,-103,-152)" stroke="rgb(255,204,0)">
      <rect x="1135" width="332" height="9" y="745.5" clip-path="url(#clipPath2)" stroke="none"/>
    </g>
    <g font-size="14px" stroke-linecap="butt" transform="matrix(1,0,0,1,-103,-152)" text-rendering="geometricPrecision" font-family="sans-serif" shape-rendering="geometricPrecision" stroke-miterlimit="1.45">
      <text x="1213.5103" xml:space="preserve" y="773.4951" clip-path="url(#clipPath2)" stroke="none">172.28.32.10/24 (MGMT)</text>
      <rect fill="none" x="1135" width="332" height="9" y="745.5" clip-path="url(#clipPath2)"/>
    </g>
    <g fill="rgb(255,204,0)" text-rendering="geometricPrecision" shape-rendering="geometricPrecision" transform="matrix(1,0,0,1,-103,-152)" stroke="rgb(255,204,0)">
      <rect x="1042" width="425" height="9" y="805.5" clip-path="url(#clipPath2)" stroke="none"/>
    </g>
    <g font-size="14px" stroke-linecap="butt" transform="matrix(1,0,0,1,-103,-152)" text-rendering="geometricPrecision" font-family="sans-serif" shape-rendering="geometricPrecision" stroke-miterlimit="1.45">
      <text x="1172.9678" xml:space="preserve" y="833.4951" clip-path="url(#clipPath2)" stroke="none">172.28.160.0/24 (OOB)</text>
      <rect fill="none" x="1042" width="425" height="9" y="805.5" clip-path="url(#clipPath2)"/>
    </g>
    <g fill="rgb(255,204,0)" text-rendering="geometricPrecision" shape-rendering="geometricPrecision" transform="matrix(1,0,0,1,-103,-152)" stroke="rgb(255,204,0)">
      <rect x="949" width="518" height="9" y="863" clip-path="url(#clipPath2)" stroke="none"/>
    </g>
    <g font-size="14px" stroke-linecap="butt" transform="matrix(1,0,0,1,-103,-152)" text-rendering="geometricPrecision" font-family="sans-serif" shape-rendering="geometricPrecision" stroke-miterlimit="1.45">
      <text x="1133.3823" xml:space="preserve" y="890.9951" clip-path="url(#clipPath2)" stroke="none">172.30.32.0/24 (TRP)</text>
      <rect fill="none" x="949" width="518" height="9" y="863" clip-path="url(#clipPath2)"/>
    </g>
    <g fill="rgb(255,204,0)" text-rendering="geometricPrecision" shape-rendering="geometricPrecision" transform="matrix(1,0,0,1,-103,-152)" stroke="rgb(255,204,0)">
      <rect x="847" width="620" height="9" y="925.5" clip-path="url(#clipPath2)" stroke="none"/>
    </g>
    <g font-size="14px" stroke-linecap="butt" transform="matrix(1,0,0,1,-103,-152)" text-rendering="geometricPrecision" font-family="sans-serif" shape-rendering="geometricPrecision" stroke-miterlimit="1.45">
      <text x="1053.1689" xml:space="preserve" y="953.4951" clip-path="url(#clipPath2)" stroke="none">10.17.32.0/24 (link mgmt sw)</text>
      <rect fill="none" x="847" width="620" height="9" y="925.5" clip-path="url(#clipPath2)"/>
      <text x="422.5479" xml:space="preserve" font-size="12px" y="651.1543" clip-path="url(#clipPath2)" stroke="none">100</text>
      <text x="622.3652" xml:space="preserve" font-size="12px" y="654.1543" clip-path="url(#clipPath2)" stroke="none">10</text>
      <text x="712.3652" xml:space="preserve" font-size="12px" y="652.1543" clip-path="url(#clipPath2)" stroke="none">10</text>
      <text x="832.3652" xml:space="preserve" font-size="12px" y="651.1543" clip-path="url(#clipPath2)" stroke="none">10</text>
      <text x="938.3652" xml:space="preserve" font-size="12px" y="652.1543" clip-path="url(#clipPath2)" stroke="none">10</text>
      <text x="1031.3652" xml:space="preserve" font-size="12px" y="651.1543" clip-path="url(#clipPath2)" stroke="none">10</text>
      <text x="1132.3652" xml:space="preserve" font-size="12px" y="650.1543" clip-path="url(#clipPath2)" stroke="none">10</text>
      <text x="554.6055" font-size="12px" y="852.1543" clip-path="url(#clipPath2)" font-style="italic" stroke="none" font-weight="bold" xml:space="preserve">mgmt sw#20</text>
      <text x="872.2881" font-size="12px" y="913.1543" clip-path="url(#clipPath2)" font-style="italic" stroke="none" font-weight="bold" xml:space="preserve">mgmt sw#mgmt</text>
      <text x="975.2549" font-size="12px" y="850.1543" clip-path="url(#clipPath2)" font-style="italic" stroke="none" font-weight="bold" xml:space="preserve">m1-1807-sw#38</text>
      <text x="1162.2549" font-size="12px" y="735.1543" clip-path="url(#clipPath2)" font-style="italic" stroke="none" font-weight="bold" xml:space="preserve">m1-1807-sw#36</text>
      <text x="1067.0801" font-size="12px" y="794.1543" clip-path="url(#clipPath2)" font-style="italic" stroke="none" font-weight="bold" xml:space="preserve">m1-1707-sw1#36</text>
      <text x="1028.8062" font-size="15px" y="500.1929" clip-path="url(#clipPath2)" stroke="none" font-weight="bold" xml:space="preserve">TEST02</text>
      <rect fill="none" x="1026.8062" width="66.3877" height="21.4609" y="484.2695" clip-path="url(#clipPath2)"/>
    </g>
    <g text-rendering="geometricPrecision" stroke-miterlimit="1.6" shape-rendering="geometricPrecision" transform="matrix(1,0,0,1,-103,-152)">
      <rect fill="none" x="671.4436" width="37.1128" height="21.4609" y="486.2695" clip-path="url(#clipPath2)"/>
    </g>
    <g font-size="15px" stroke-linecap="butt" transform="matrix(1,0,0,1,-103,-152)" text-rendering="geometricPrecision" font-family="sans-serif" shape-rendering="geometricPrecision" font-weight="bold" stroke-miterlimit="1.45">
      <text x="673.4436" xml:space="preserve" y="502.1929" clip-path="url(#clipPath2)" stroke="none">OSL</text>
      <path fill="none" d="M978.4065 542 L978.3847 541.9771" clip-path="url(#clipPath2)"/>
      <path fill="none" d="M452.6667 629.9963 L450.0996 745.5175" clip-path="url(#clipPath2)"/>
      <path fill="none" d="M648 630 L648 862" clip-path="url(#clipPath2)"/>
      <path fill="none" d="M741 630 L741 925.4922" clip-path="url(#clipPath2)"/>
      <path fill="none" d="M1150 630 L1150 745.4952" clip-path="url(#clipPath2)"/>
      <path fill="none" d="M1057 630 L1057 805.4806" clip-path="url(#clipPath2)"/>
      <path fill="none" d="M964 630 L964 862" clip-path="url(#clipPath2)"/>
      <path fill="none" d="M862 630 L862 925.4717" clip-path="url(#clipPath2)"/>
      <path fill="none" d="M1059.7517 505.7305 L1057.5698 600.0107" clip-path="url(#clipPath2)"/>
      <path fill="none" d="M1068.8136 505.7305 L1146.5547 600.379" clip-path="url(#clipPath2)"/>
      <path fill="none" d="M1050.4586 505.7305 L966.4706 600.1856" clip-path="url(#clipPath2)"/>
      <path fill="none" d="M695.3652 507.7305 L741.4886 599.9774" clip-path="url(#clipPath2)"/>
      <path fill="none" d="M686.0144 507.7305 L651.5848 600.4254" clip-path="url(#clipPath2)"/>
    </g>
  </g>
</svg>
